<svg width="240" height="192" viewBox="0 0 240 192" fill="none" xmlns="http://www.w3.org/2000/svg">
<path d="M61.1 62.0998L20.5 95.9998L61.1 129.9C61.9142 130.558 62.5893 131.372 63.086 132.294C63.5828 133.216 63.8913 134.227 63.9937 135.27C64.096 136.312 63.9902 137.364 63.6822 138.365C63.3743 139.366 62.8705 140.295 62.2 141.1C61.4409 142.006 60.4925 142.736 59.4214 143.237C58.3503 143.738 57.1825 143.998 56 144C54.1254 144.008 52.312 143.333 50.9 142.1L2.9 102.1C1.99942 101.359 1.27412 100.427 0.776161 99.3727C0.278207 98.318 0.0199585 97.1661 0.0199585 95.9998C0.0199585 94.8335 0.278207 93.6816 0.776161 92.627C1.27412 91.5723 1.99942 90.641 2.9 89.8998L50.9 49.8998C51.6782 49.0873 52.6191 48.448 53.6611 48.0238C54.7032 47.5996 55.823 47.3999 56.9474 47.4379C58.0719 47.4758 59.1757 47.7505 60.1867 48.2441C61.1978 48.7376 62.0934 49.4388 62.8151 50.302C63.5367 51.1651 64.0682 52.1708 64.3748 53.2533C64.6814 54.3358 64.7562 55.4708 64.5943 56.5842C64.4325 57.6976 64.0376 58.7643 63.4355 59.7147C62.8334 60.6652 62.0375 61.4779 61.1 62.0998ZM237.1 89.8998L189.1 49.8998C187.459 48.8115 185.475 48.3663 183.527 48.6495C181.578 48.9328 179.803 49.9245 178.54 51.4349C177.277 52.9454 176.616 54.8685 176.682 56.8362C176.749 58.8039 177.538 60.678 178.9 62.0998L219.5 95.9998L178.9 129.9C177.656 130.955 176.764 132.366 176.345 133.943C175.925 135.52 175.998 137.187 176.552 138.721C177.107 140.256 178.118 141.584 179.449 142.527C180.781 143.471 182.368 143.984 184 144C185.875 144.008 187.688 143.333 189.1 142.1L237.1 102.1C238.001 101.359 238.726 100.427 239.224 99.3727C239.722 98.318 239.98 97.1661 239.98 95.9998C239.98 94.8335 239.722 93.6816 239.224 92.627C238.726 91.5723 238.001 90.641 237.1 89.8998V89.8998ZM154.7 0.499822C153.716 0.135418 152.669 -0.029238 151.62 0.0154739C150.572 0.0601858 149.543 0.313371 148.593 0.760236C147.644 1.2071 146.793 1.83869 146.09 2.61812C145.387 3.39755 144.847 4.3092 144.5 5.29982L80.5 181.3C80.1356 182.284 79.9709 183.331 80.0157 184.379C80.0604 185.428 80.3135 186.457 80.7604 187.407C81.2073 188.356 81.8389 189.207 82.6183 189.91C83.3977 190.613 84.3094 191.153 85.3 191.5C86.1674 191.81 87.079 191.979 88 192C89.6465 192.008 91.2545 191.502 92.5992 190.552C93.9439 189.601 94.9581 188.255 95.5 186.7L159.5 10.6998C159.864 9.71564 160.029 8.66871 159.984 7.62018C159.94 6.57166 159.686 5.54255 159.24 4.59296C158.793 3.64337 158.161 2.79233 157.382 2.08956C156.602 1.38678 155.691 0.846347 154.7 0.499822V0.499822Z" fill="#F8F8F8"/>
</svg>
