<svg width="18" height="18" viewBox="0 0 18 18" fill="none" xmlns="http://www.w3.org/2000/svg">
<path d="M0.989001 4.5892C0.989001 6.0832 1.488 7.1612 2.471 7.7942C3.277 8.3142 4.211 8.3922 4.697 8.3922C4.815 8.3922 4.91 8.3862 4.976 8.3822C4.976 8.3822 4.822 9.3862 5.566 10.3782H5.532C4.243 10.3782 0.0390015 10.6472 0.0390015 14.1052C0.0390015 17.6212 3.9 17.8002 4.675 17.8002C4.736 17.8002 4.772 17.7982 4.772 17.7982C4.78 17.7982 4.835 17.8002 4.93 17.8002C5.427 17.8002 6.712 17.7382 7.905 17.1572C9.453 16.4072 10.238 15.0982 10.238 13.2722C10.238 11.5082 9.042 10.4582 8.169 9.6902C7.636 9.2212 7.175 8.8172 7.175 8.4242C7.175 8.0242 7.512 7.7232 7.937 7.3422C8.626 6.7272 9.276 5.8502 9.276 4.1922C9.276 2.7352 9.087 1.7562 7.922 1.1352C8.043 1.0732 8.473 1.0282 8.685 0.998195C9.316 0.912195 10.239 0.814195 10.239 0.299195V0.200195H5.64C5.594 0.202195 0.989001 0.372195 0.989001 4.5892V4.5892ZM8.413 13.6022C8.501 15.0082 7.298 16.0452 5.491 16.1762C3.656 16.3112 2.146 15.4852 2.058 14.0802C2.015 13.4042 2.312 12.7442 2.893 12.2172C3.482 11.6842 4.291 11.3542 5.171 11.2892C5.275 11.2832 5.378 11.2772 5.481 11.2772C7.18 11.2782 8.33 12.2762 8.413 13.6022V13.6022ZM7.212 3.6262C7.663 5.2142 6.982 6.8722 5.896 7.1792C5.77099 7.21403 5.64178 7.23153 5.512 7.2312C4.518 7.2312 3.533 6.22519 3.167 4.83819C2.963 4.06219 2.98 3.3802 3.214 2.7262C3.443 2.0812 3.857 1.6482 4.377 1.5012C4.502 1.4662 4.631 1.4482 4.762 1.4482C5.962 1.4482 6.734 1.9462 7.212 3.6262V3.6262ZM15 7.0002V4.0002H13V7.0002H10V9.0002H13V12.0002H15V9.0002H18V7.0002H15Z" fill="#F8F8F8"/>
</svg>
