<svg width="322" height="62" viewBox="0 0 322 62" fill="none" xmlns="http://www.w3.org/2000/svg">
<g filter="url(#filter0_d_520_35)">
<path d="M4.625 4.9375C6.04167 5.10417 7.22917 5.22917 8.1875 5.3125C9.1875 5.35417 10 5.41667 10.625 5.5C11.375 5.58333 11.9583 5.625 12.375 5.625C12.8333 5.66667 13.5208 5.64583 14.4375 5.5625C15.2292 5.47917 16.2917 5.375 17.625 5.25C19 5.125 20.75 4.9375 22.875 4.6875C21.9167 5.52083 21.1458 6.33333 20.5625 7.125C20.0208 7.875 19.6042 8.54167 19.3125 9.125C18.9375 9.83333 18.7083 10.5 18.625 11.125C18.4583 12.125 18.3125 13.5 18.1875 15.25C18.1042 16.9583 18.0208 18.8333 17.9375 20.875C17.8542 22.9167 17.8125 25.0208 17.8125 27.1875C17.8125 29.3542 17.8333 31.4167 17.875 33.375C17.9583 35.2917 18.0833 37 18.25 38.5C18.4583 40 18.7083 41.0833 19 41.75C19.4167 42.5 19.8542 43.25 20.3125 44C20.7292 44.625 21.2292 45.2708 21.8125 45.9375C22.3958 46.6042 23.0625 47.1458 23.8125 47.5625C21.3542 47.4375 19.3958 47.375 17.9375 47.375H15.6875C15.0208 47.375 14.1667 47.4167 13.125 47.5C12.25 47.5833 11.1458 47.6667 9.8125 47.75C8.47917 47.8333 6.875 47.9583 5 48.125C5.95833 47.0833 6.70833 46.0833 7.25 45.125C7.79167 44.1667 8.22917 43.3333 8.5625 42.625C8.9375 41.7917 9.1875 41 9.3125 40.25C9.47917 39.1667 9.60417 37.8333 9.6875 36.25C9.8125 34.625 9.89583 32.8958 9.9375 31.0625C9.97917 29.1875 9.97917 27.2917 9.9375 25.375C9.9375 23.4167 9.89583 21.5417 9.8125 19.75C9.72917 17.9583 9.60417 16.3333 9.4375 14.875C9.3125 13.4167 9.14583 12.25 8.9375 11.375C8.8125 10.8333 8.5625 10.2292 8.1875 9.5625C7.85417 8.97917 7.39583 8.3125 6.8125 7.5625C6.27083 6.77083 5.54167 5.89583 4.625 4.9375ZM24.155 2.375C26.9467 2.70833 29.3633 2.95833 31.405 3.125C33.4467 3.25 35.1342 3.35417 36.4675 3.4375C38.0092 3.52083 39.3008 3.54167 40.3425 3.5C41.4258 3.45833 42.905 3.35417 44.78 3.1875C46.3633 3.0625 48.4467 2.89583 51.03 2.6875C53.6133 2.4375 56.8425 2.10417 60.7175 1.6875C60.7592 2.64583 60.78 3.58333 60.78 4.5C60.8217 5.375 60.8633 6.14583 60.905 6.8125C60.9467 7.60417 60.9675 8.33333 60.9675 9C60.9675 9.70833 60.9258 10.6042 60.8425 11.6875C60.7592 12.6042 60.6133 13.7708 60.405 15.1875C60.2383 16.5625 59.9675 18.2083 59.5925 20.125C59.0092 17.875 58.4467 16.0625 57.905 14.6875C57.3633 13.2708 56.8633 12.1458 56.405 11.3125C55.905 10.3542 55.405 9.625 54.905 9.125C54.3633 8.75 53.7175 8.4375 52.9675 8.1875C52.3008 7.97917 51.4467 7.8125 50.405 7.6875C49.405 7.5625 48.2175 7.58333 46.8425 7.75C46.6342 13.25 46.4883 17.7083 46.405 21.125C46.3217 24.5417 46.2592 27.2083 46.2175 29.125C46.1758 31.4167 46.155 33.0625 46.155 34.0625C46.1967 35.4792 46.4258 36.875 46.8425 38.25C47.1758 39.4167 47.7175 40.625 48.4675 41.875C49.2175 43.125 50.3008 44.2292 51.7175 45.1875H44.0925C43.3842 45.1875 42.5092 45.2292 41.4675 45.3125C40.5925 45.3958 39.4675 45.4792 38.0925 45.5625C36.7592 45.6458 35.1967 45.7917 33.405 46C34.03 44.9167 34.53 43.9375 34.905 43.0625C35.28 42.1875 35.5717 41.4375 35.78 40.8125C36.03 40.0625 36.2175 39.3958 36.3425 38.8125C36.3842 37.9792 36.4883 36.2917 36.655 33.75C36.6967 32.7083 36.7383 31.4167 36.78 29.875C36.8633 28.3333 36.9467 26.5 37.03 24.375C37.155 22.25 37.2592 19.8125 37.3425 17.0625C37.4675 14.2708 37.5925 11.125 37.7175 7.625C36.9675 7.41667 36.2592 7.4375 35.5925 7.6875C34.9258 7.89583 34.3425 8.16667 33.8425 8.5C33.2592 8.91667 32.6967 9.41667 32.155 10C31.6133 10.7083 31.0092 11.625 30.3425 12.75C29.7592 13.7083 29.0925 14.9792 28.3425 16.5625C27.5925 18.1042 26.7383 20.0208 25.78 22.3125C25.5717 19.8958 25.4258 17.9167 25.3425 16.375C25.2592 14.7917 25.1967 13.5625 25.155 12.6875C25.1133 11.6458 25.0925 10.875 25.0925 10.375C25.0925 9.91667 25.0508 9.3125 24.9675 8.5625C24.8842 7.9375 24.78 7.125 24.655 6.125C24.53 5.08333 24.3633 3.83333 24.155 2.375ZM100.873 2.25C100.289 3.58333 99.7683 4.75 99.31 5.75C98.8517 6.75 98.4558 7.60417 98.1225 8.3125C97.7475 9.10417 97.435 9.8125 97.185 10.4375C96.9767 10.8958 96.7058 11.5208 96.3725 12.3125C96.0392 13.0208 95.6225 13.9583 95.1225 15.125C94.6642 16.25 94.06 17.7083 93.31 19.5C92.935 17.9583 92.4767 16.6042 91.935 15.4375C91.3933 14.2708 90.81 13.25 90.185 12.375C89.56 11.5 88.8933 10.7917 88.185 10.25C87.5183 9.66667 86.8517 9.1875 86.185 8.8125C84.6433 7.97917 83.0183 7.52083 81.31 7.4375C79.06 7.5625 77.2892 7.9375 75.9975 8.5625C74.7475 9.14583 73.8308 9.83333 73.2475 10.625C72.6642 11.375 72.3517 12.1667 72.31 13C72.2683 13.7917 72.3725 14.4583 72.6225 15C72.8308 15.5 73.56 16.0833 74.81 16.75C76.1017 17.4167 77.6433 18.1875 79.435 19.0625C81.2683 19.8958 83.2267 20.8542 85.31 21.9375C87.3933 22.9792 89.31 24.1458 91.06 25.4375C92.8517 26.6875 94.3517 28.0625 95.56 29.5625C96.81 31.0208 97.4975 32.5833 97.6225 34.25C97.7475 36.375 97.7267 38.2917 97.56 40C97.3933 41.7083 96.81 43.1667 95.81 44.375C94.81 45.5833 93.2475 46.5417 91.1225 47.25C89.0392 47.9583 86.1433 48.3958 82.435 48.5625C78.6017 48.7292 75.4558 48.5208 72.9975 47.9375C70.5392 47.3542 68.5392 46.5625 66.9975 45.5625C65.4975 44.5625 64.3725 43.4583 63.6225 42.25C62.9142 41.0417 62.3933 39.8958 62.06 38.8125C61.7267 37.6875 61.4975 36.7292 61.3725 35.9375C61.2475 35.1042 61.0392 34.6042 60.7475 34.4375C60.4142 34.2292 60.0808 34.0417 59.7475 33.875C59.4558 33.7083 59.1433 33.5625 58.81 33.4375C58.4767 33.2708 58.1433 33.125 57.81 33L75.9975 30.0625C74.9558 30.8958 74.1433 31.6667 73.56 32.375C73.0183 33.0833 72.6017 33.7083 72.31 34.25C71.9767 34.875 71.7475 35.4583 71.6225 36C71.5392 36.5833 71.7267 37.3125 72.185 38.1875C72.6433 39.0625 73.2683 39.9167 74.06 40.75C74.8933 41.5417 75.8517 42.2083 76.935 42.75C78.0183 43.2917 79.1433 43.5208 80.31 43.4375C81.7683 43.3125 82.9558 42.9583 83.8725 42.375C84.7892 41.75 85.4767 40.9792 85.935 40.0625C86.435 39.1458 86.7267 38.1458 86.81 37.0625C86.8933 35.9792 86.7892 34.9167 86.4975 33.875C86.2475 32.7917 85.8308 31.7917 85.2475 30.875C84.6642 29.9167 83.9767 29.125 83.185 28.5C82.4767 28 81.3725 27.5208 79.8725 27.0625C78.4142 26.6042 76.7683 26.1042 74.935 25.5625C73.1433 25.0208 71.2892 24.3958 69.3725 23.6875C67.4975 22.9792 65.7892 22.1042 64.2475 21.0625C62.7475 20.0208 61.5392 18.7917 60.6225 17.375C59.7475 15.9583 59.4142 14.25 59.6225 12.25C59.7892 10.5417 60.3308 9.125 61.2475 8C62.2058 6.83333 63.3933 5.91667 64.81 5.25C66.2683 4.54167 67.8725 4.02083 69.6225 3.6875C71.4142 3.35417 73.2267 3.16667 75.06 3.125C76.935 3.04167 78.7683 3.0625 80.56 3.1875C82.3933 3.3125 84.0392 3.45833 85.4975 3.625C86.9558 3.79167 88.185 3.95833 89.185 4.125C90.2267 4.25 90.8725 4.33333 91.1225 4.375C92.2058 4.45833 93.2892 4.4375 94.3725 4.3125C95.3308 4.22917 96.3725 4.04167 97.4975 3.75C98.6642 3.41667 99.7892 2.91667 100.873 2.25ZM102.152 2.9375C102.611 3.14583 103.152 3.29167 103.777 3.375C104.444 3.45833 105.069 3.5 105.652 3.5C106.361 3.5 107.09 3.47917 107.84 3.4375C108.59 3.39583 109.507 3.3125 110.59 3.1875C111.465 3.10417 112.548 3 113.84 2.875C115.132 2.75 116.569 2.58333 118.152 2.375C117.569 2.66667 117.069 2.97917 116.652 3.3125C116.236 3.64583 115.882 3.97917 115.59 4.3125C115.257 4.6875 114.986 5.0625 114.777 5.4375C114.486 5.9375 114.09 6.8125 113.59 8.0625C113.132 9.27083 112.652 10.625 112.152 12.125C111.694 13.625 111.277 15.1458 110.902 16.6875C110.569 18.2292 110.382 19.5417 110.34 20.625C110.298 21.5417 110.257 22.5833 110.215 23.75C110.173 24.75 110.132 25.9792 110.09 27.4375C110.048 28.8958 110.007 30.5625 109.965 32.4375C112.965 30.2708 115.277 28.5417 116.902 27.25C118.527 25.9167 119.715 24.8958 120.465 24.1875C121.34 23.3958 121.861 22.8333 122.027 22.5C121.986 22.25 121.882 21.9792 121.715 21.6875C121.507 21.4375 121.215 21.1458 120.84 20.8125C120.465 20.4792 119.902 20.1042 119.152 19.6875C120.236 19.8125 121.173 19.8958 121.965 19.9375C122.798 19.9792 123.507 20.0208 124.09 20.0625C124.757 20.1042 125.34 20.1042 125.84 20.0625C126.382 20.0625 127.048 20.0417 127.84 20C129.215 19.9583 131.34 19.8958 134.215 19.8125C131.423 21.2708 129.215 22.5208 127.59 23.5625C126.673 24.1458 125.861 24.6875 125.152 25.1875C124.444 25.7292 123.715 26.2917 122.965 26.875C122.298 27.375 121.527 27.9583 120.652 28.625C119.819 29.2917 118.986 30 118.152 30.75C119.611 33.125 120.882 35.0833 121.965 36.625C123.09 38.1667 124.027 39.4167 124.777 40.375C125.652 41.5 126.423 42.3958 127.09 43.0625C127.757 43.6875 128.632 44.3958 129.715 45.1875C130.632 45.8958 131.819 46.7292 133.277 47.6875C134.777 48.6042 136.59 49.6667 138.715 50.875C137.632 50.6667 136.59 50.5208 135.59 50.4375C134.59 50.3958 133.736 50.3958 133.027 50.4375C132.152 50.4792 131.361 50.5625 130.652 50.6875C129.902 50.8542 129.069 51.0625 128.152 51.3125C127.361 51.5208 126.423 51.7917 125.34 52.125C124.298 52.5 123.152 52.9792 121.902 53.5625C122.694 52.9792 123.277 52.4167 123.652 51.875C124.069 51.375 124.361 50.9583 124.527 50.625C124.694 50.2083 124.757 49.8542 124.715 49.5625C124.507 49.1458 124.027 48.2917 123.277 47C122.569 45.9167 121.527 44.3333 120.152 42.25C118.777 40.1667 116.819 37.3333 114.277 33.75C114.152 33.7917 113.944 33.9167 113.652 34.125C113.402 34.3333 113.027 34.625 112.527 35C112.027 35.3333 111.361 35.8333 110.527 36.5L112.215 47.4375C111.84 47.6042 111.423 47.75 110.965 47.875C110.548 48 110.152 48.1042 109.777 48.1875C109.319 48.3125 108.861 48.3958 108.402 48.4375C107.944 48.4792 107.402 48.5625 106.777 48.6875C106.236 48.7708 105.59 48.875 104.84 49C104.09 49.1667 103.236 49.3542 102.277 49.5625C102.819 49.1875 103.257 48.75 103.59 48.25C103.923 47.7917 104.194 47.3542 104.402 46.9375C104.611 46.4792 104.798 46 104.965 45.5C105.048 45.0833 105.132 44 105.215 42.25C105.34 40.5 105.444 38.4167 105.527 36C105.611 33.5417 105.673 30.9167 105.715 28.125C105.798 25.3333 105.84 22.7083 105.84 20.25C105.84 17.75 105.819 15.5833 105.777 13.75C105.736 11.875 105.652 10.6667 105.527 10.125C105.319 9.45833 105.069 8.75 104.777 8C104.527 7.33333 104.173 6.58333 103.715 5.75C103.298 4.875 102.777 3.9375 102.152 2.9375ZM133.245 20.0625L144.745 20.1875C144.078 22.7292 143.578 24.8958 143.245 26.6875C142.953 28.4792 142.766 29.9792 142.682 31.1875C142.516 32.5625 142.474 33.7292 142.557 34.6875C142.682 35.5625 142.891 36.5 143.182 37.5C143.432 38.3333 143.807 39.2917 144.307 40.375C144.807 41.4583 145.474 42.5417 146.307 43.625C145.807 43.4583 145.266 43.3333 144.682 43.25C144.099 43.1667 143.557 43.1042 143.057 43.0625C142.474 43.0208 141.891 43.0208 141.307 43.0625C140.724 43.1042 140.078 43.1667 139.37 43.25C138.787 43.3333 138.078 43.4375 137.245 43.5625C136.412 43.6875 135.537 43.8542 134.62 44.0625C135.245 42.1875 135.724 40.5625 136.057 39.1875C136.432 37.8125 136.703 36.6667 136.87 35.75C137.037 34.6667 137.141 33.7917 137.182 33.125C137.182 32.2917 137.182 31.3542 137.182 30.3125C137.182 29.2292 137.182 28.1875 137.182 27.1875C137.182 26.1875 137.162 25.3125 137.12 24.5625C137.078 23.7708 136.995 23.2708 136.87 23.0625L136.245 22.4375C135.995 22.2292 135.62 21.9375 135.12 21.5625C134.662 21.1458 134.037 20.6458 133.245 20.0625ZM137.682 10.4375C138.557 9.97917 139.432 9.85417 140.307 10.0625C141.224 10.2708 141.932 10.6667 142.432 11.25C142.932 11.8333 143.099 12.5208 142.932 13.3125C142.807 14.1042 142.141 14.875 140.932 15.625C139.724 16.3333 138.662 16.5833 137.745 16.375C136.828 16.1667 136.182 15.7292 135.807 15.0625C135.432 14.3958 135.37 13.625 135.62 12.75C135.87 11.8333 136.557 11.0625 137.682 10.4375ZM151.275 49.75C151.692 49.125 152.025 48.5417 152.275 48C152.525 47.4583 152.733 47 152.9 46.625C153.067 46.1667 153.192 45.75 153.275 45.375C153.317 45.125 153.337 44.3958 153.337 43.1875C153.337 41.9792 153.296 40.4583 153.212 38.625C153.171 36.7917 153.108 34.7292 153.025 32.4375C152.983 30.1458 152.9 27.8125 152.775 25.4375C152.692 23.0625 152.587 20.75 152.462 18.5C152.379 16.25 152.296 14.2292 152.212 12.4375C152.129 10.6042 152.046 9.10417 151.962 7.9375C151.879 6.77083 151.817 6.10417 151.775 5.9375C151.692 5.6875 151.546 5.4375 151.337 5.1875C150.921 4.6875 150.212 4.20833 149.212 3.75C151.337 3.20833 152.962 2.77083 154.087 2.4375C154.754 2.27083 155.337 2.10417 155.837 1.9375C156.296 1.77083 156.754 1.60417 157.212 1.4375C157.587 1.27083 158.004 1.08333 158.462 0.875C158.921 0.625 159.337 0.354167 159.712 0.0625C159.504 1.27083 159.337 2.4375 159.212 3.5625C159.087 4.6875 158.983 5.72917 158.9 6.6875C158.817 7.77083 158.775 8.8125 158.775 9.8125C158.567 11.8542 158.442 14.0833 158.4 16.5C158.4 18.875 158.421 21.2917 158.462 23.75C158.504 26.2083 158.587 28.6042 158.712 30.9375C158.837 33.2708 158.962 35.3958 159.087 37.3125C159.254 39.1875 159.4 40.7917 159.525 42.125C159.692 43.4167 159.817 44.25 159.9 44.625C160.067 45.25 160.233 45.8542 160.4 46.4375C160.567 46.9375 160.754 47.4583 160.962 48C161.171 48.5833 161.421 49.0417 161.712 49.375H155.65C155.108 49.375 154.587 49.3958 154.087 49.4375C153.629 49.4792 153.15 49.5208 152.65 49.5625C152.15 49.6042 151.692 49.6667 151.275 49.75ZM166.68 49.75C167.097 49.125 167.43 48.5417 167.68 48C167.93 47.4583 168.138 47 168.305 46.625C168.472 46.1667 168.597 45.75 168.68 45.375C168.722 45.125 168.742 44.3958 168.742 43.1875C168.742 41.9792 168.701 40.4583 168.617 38.625C168.576 36.7917 168.513 34.7292 168.43 32.4375C168.388 30.1458 168.305 27.8125 168.18 25.4375C168.097 23.0625 167.992 20.75 167.867 18.5C167.784 16.25 167.701 14.2292 167.617 12.4375C167.534 10.6042 167.451 9.10417 167.367 7.9375C167.284 6.77083 167.222 6.10417 167.18 5.9375C167.097 5.6875 166.951 5.4375 166.742 5.1875C166.326 4.6875 165.617 4.20833 164.617 3.75C166.742 3.20833 168.367 2.77083 169.492 2.4375C170.159 2.27083 170.742 2.10417 171.242 1.9375C171.701 1.77083 172.159 1.60417 172.617 1.4375C172.992 1.27083 173.409 1.08333 173.867 0.875C174.326 0.625 174.742 0.354167 175.117 0.0625C174.909 1.27083 174.742 2.4375 174.617 3.5625C174.492 4.6875 174.388 5.72917 174.305 6.6875C174.222 7.77083 174.18 8.8125 174.18 9.8125C173.972 11.8542 173.847 14.0833 173.805 16.5C173.805 18.875 173.826 21.2917 173.867 23.75C173.909 26.2083 173.992 28.6042 174.117 30.9375C174.242 33.2708 174.367 35.3958 174.492 37.3125C174.659 39.1875 174.805 40.7917 174.93 42.125C175.097 43.4167 175.222 44.25 175.305 44.625C175.472 45.25 175.638 45.8542 175.805 46.4375C175.972 46.9375 176.159 47.4583 176.367 48C176.576 48.5833 176.826 49.0417 177.117 49.375H171.055C170.513 49.375 169.992 49.3958 169.492 49.4375C169.034 49.4792 168.555 49.5208 168.055 49.5625C167.555 49.6042 167.097 49.6667 166.68 49.75ZM208.21 12.3125C207.835 13.2292 207.502 14.0625 207.21 14.8125C206.96 15.5625 206.731 16.2292 206.523 16.8125C206.314 17.4792 206.127 18.0625 205.96 18.5625C205.793 19.1458 205.606 19.8125 205.398 20.5625C205.189 21.2292 204.918 22.0625 204.585 23.0625C204.293 24.0208 203.939 25.1667 203.523 26.5C203.189 24.5 202.585 22.9167 201.71 21.75C200.835 20.5417 199.939 19.6042 199.023 18.9375C197.939 18.1875 196.773 17.6458 195.523 17.3125C193.273 16.9375 191.648 16.9792 190.648 17.4375C189.648 17.8958 188.981 18.4792 188.648 19.1875C188.481 19.4792 188.293 19.8542 188.085 20.3125C187.918 20.7292 187.773 21.1667 187.648 21.625C187.564 22.0833 187.543 22.5417 187.585 23C187.627 23.4583 187.814 23.8333 188.148 24.125C188.356 24.3333 188.898 24.625 189.773 25C190.648 25.3333 191.689 25.7292 192.898 26.1875C194.148 26.6042 195.46 27.0625 196.835 27.5625C198.252 28.0625 199.585 28.5625 200.835 29.0625C202.085 29.5625 203.168 30.0625 204.085 30.5625C205.002 31.0625 205.606 31.5208 205.898 31.9375C206.148 32.3542 206.418 32.9167 206.71 33.625C207.043 34.2917 207.273 35.0417 207.398 35.875C207.564 36.6667 207.606 37.5 207.523 38.375C207.481 39.2083 207.252 40.0417 206.835 40.875C206.418 41.7083 205.752 42.4792 204.835 43.1875C203.96 43.8958 202.773 44.4792 201.273 44.9375C199.523 45.4792 197.835 45.625 196.21 45.375C194.585 45.125 193.085 44.75 191.71 44.25C190.377 43.75 189.21 43.2708 188.21 42.8125C187.21 42.3125 186.502 42.1042 186.085 42.1875C185.627 42.2708 185.106 42.5 184.523 42.875C183.939 43.25 183.377 43.6458 182.835 44.0625C182.335 44.4375 181.898 44.7917 181.523 45.125C181.148 45.4167 180.96 45.5208 180.96 45.4375C180.96 45.3542 181.023 45.1042 181.148 44.6875C181.314 44.2708 181.481 43.7708 181.648 43.1875C181.856 42.5625 182.043 41.8958 182.21 41.1875C182.418 40.4375 182.564 39.7292 182.648 39.0625C182.731 38.5208 182.835 37.8542 182.96 37.0625C183.043 36.3542 183.148 35.5 183.273 34.5C183.439 33.4583 183.627 32.2083 183.835 30.75C184.043 31.8333 184.335 32.7708 184.71 33.5625C185.127 34.3542 185.523 35.0417 185.898 35.625C186.356 36.2917 186.793 36.8542 187.21 37.3125C187.835 37.8958 188.564 38.4375 189.398 38.9375C190.273 39.4375 191.148 39.875 192.023 40.25C192.898 40.5833 193.731 40.7917 194.523 40.875C195.314 40.9583 195.981 40.875 196.523 40.625C197.064 40.375 197.523 39.9167 197.898 39.25C198.314 38.5833 198.606 37.8542 198.773 37.0625C198.939 36.2708 199.002 35.5208 198.96 34.8125C198.918 34.0625 198.731 33.4583 198.398 33C198.148 32.7083 197.564 32.3333 196.648 31.875C195.773 31.4167 194.71 30.9167 193.46 30.375C192.252 29.8333 190.96 29.2708 189.585 28.6875C188.252 28.1042 186.981 27.5208 185.773 26.9375C184.606 26.3125 183.627 25.7292 182.835 25.1875C182.085 24.6042 181.668 24.0833 181.585 23.625C181.502 22.9583 181.439 22.2292 181.398 21.4375C181.356 20.6042 181.398 19.7917 181.523 19C181.689 18.1667 181.981 17.375 182.398 16.625C182.856 15.875 183.523 15.25 184.398 14.75C184.981 14.4167 185.752 14.1667 186.71 14C187.668 13.8333 188.731 13.75 189.898 13.75C191.064 13.7083 192.273 13.75 193.523 13.875C194.773 13.9583 195.96 14.0833 197.085 14.25C198.252 14.375 199.293 14.5417 200.21 14.75C201.168 14.9583 201.898 15.1458 202.398 15.3125C202.981 15.5208 203.606 15.5417 204.273 15.375C204.856 15.25 205.481 14.9792 206.148 14.5625C206.814 14.1458 207.502 13.3958 208.21 12.3125ZM209.49 3.4375C210.948 3.64583 212.219 3.8125 213.303 3.9375C214.386 4.0625 215.282 4.16667 215.99 4.25C216.823 4.33333 217.532 4.39583 218.115 4.4375C218.782 4.52083 219.594 4.47917 220.553 4.3125C221.553 4.14583 222.615 3.97917 223.74 3.8125C224.865 3.60417 226.032 3.4375 227.24 3.3125C228.448 3.1875 229.615 3.1875 230.74 3.3125C231.49 3.39583 232.448 3.5625 233.615 3.8125C234.782 4.0625 236.011 4.45833 237.303 5C238.636 5.54167 239.969 6.25 241.303 7.125C242.636 8 243.844 9.10417 244.928 10.4375C246.011 11.7708 246.907 13.3542 247.615 15.1875C248.323 17.0208 248.719 19.1667 248.803 21.625C248.928 25.2917 248.594 28.625 247.803 31.625C247.011 34.625 245.782 37.1875 244.115 39.3125C242.49 41.4375 240.428 43.1042 237.928 44.3125C235.428 45.5208 232.511 46.1875 229.178 46.3125C226.636 46.5208 224.136 46.7083 221.678 46.875C220.636 46.9583 219.532 47.0208 218.365 47.0625C217.24 47.1042 216.115 47.1458 214.99 47.1875C213.865 47.1875 212.782 47.1667 211.74 47.125C210.698 47.0833 209.74 47.0208 208.865 46.9375C209.823 46.4792 210.594 46.0208 211.178 45.5625C211.803 45.1042 212.282 44.7083 212.615 44.375C212.99 43.9583 213.261 43.5833 213.428 43.25C213.511 42.7917 213.636 41.8958 213.803 40.5625C213.928 39.4375 214.094 37.8333 214.303 35.75C214.511 33.6667 214.761 30.8333 215.053 27.25L215.428 22.8125C215.636 20.0625 215.719 17.8125 215.678 16.0625C215.678 14.3125 215.636 12.9375 215.553 11.9375C215.428 10.7708 215.261 9.91667 215.053 9.375C214.886 8.91667 214.573 8.375 214.115 7.75C213.698 7.25 213.115 6.64583 212.365 5.9375C211.657 5.1875 210.698 4.35417 209.49 3.4375ZM222.678 26.4375C222.761 30.1458 222.948 33 223.24 35C223.573 36.9583 223.928 38.4167 224.303 39.375C224.761 40.4583 225.261 41.1042 225.803 41.3125C226.594 41.3125 227.49 40.9792 228.49 40.3125C229.49 39.6042 230.469 38.5417 231.428 37.125C232.428 35.7083 233.323 33.9375 234.115 31.8125C234.948 29.6875 235.553 27.2083 235.928 24.375C236.303 21.5417 236.198 19.0417 235.615 16.875C235.032 14.7083 234.261 12.8958 233.303 11.4375C232.344 9.9375 231.365 8.8125 230.365 8.0625C229.365 7.27083 228.615 6.875 228.115 6.875C227.532 6.875 227.011 7.04167 226.553 7.375C226.094 7.66667 225.448 8.35417 224.615 9.4375C224.198 10.0208 223.823 10.8542 223.49 11.9375C223.198 12.8958 222.948 14.1667 222.74 15.75C222.532 17.3333 222.469 19.375 222.553 21.875L222.678 26.4375ZM269.208 37.9375C270.374 37.9375 271.458 37.8125 272.458 37.5625C273.291 37.3542 274.083 37.0208 274.833 36.5625C275.624 36.0625 276.145 35.3333 276.395 34.375C277.228 34.5417 277.937 34.6875 278.52 34.8125C279.103 34.8958 279.603 34.9792 280.02 35.0625C280.478 35.1875 280.874 35.2708 281.208 35.3125C281.541 35.3958 281.937 35.4792 282.395 35.5625C282.812 35.6458 283.312 35.75 283.895 35.875C284.52 35.9583 285.249 36.0833 286.083 36.25C285.458 36.1667 284.812 36.2292 284.145 36.4375C283.52 36.6458 282.916 36.875 282.333 37.125C281.666 37.4167 281.041 37.7708 280.458 38.1875C280.083 38.4375 279.645 38.8125 279.145 39.3125C278.687 39.8125 278.02 40.2917 277.145 40.75C276.27 41.2083 275.103 41.6042 273.645 41.9375C272.228 42.2292 270.395 42.3333 268.145 42.25C265.437 42.1667 263.166 41.6875 261.333 40.8125C259.499 39.8958 258.02 38.7917 256.895 37.5C255.77 36.1667 254.958 34.7292 254.458 33.1875C253.958 31.6458 253.687 30.2083 253.645 28.875C253.603 27.5417 253.999 26.1458 254.833 24.6875C255.666 23.2292 256.833 21.8958 258.333 20.6875C259.874 19.4792 261.728 18.5 263.895 17.75C266.062 16.9583 268.437 16.5625 271.02 16.5625C272.52 16.5625 273.895 16.75 275.145 17.125C276.437 17.4583 277.603 17.9167 278.645 18.5C279.728 19.0833 280.666 19.75 281.458 20.5C282.249 21.2083 282.916 21.9375 283.458 22.6875C283.999 23.4792 284.458 24.3125 284.833 25.1875C285.166 25.9375 285.437 26.7917 285.645 27.75C285.853 28.7083 285.916 29.6875 285.833 30.6875C282.666 30.7708 280.103 30.8333 278.145 30.875C276.228 30.9167 274.728 30.9375 273.645 30.9375H270.833H268.708C267.958 30.9375 266.978 30.9583 265.77 31C264.562 31.0417 263.083 31.1042 261.333 31.1875C261.541 32.8542 262.062 34.1458 262.895 35.0625C263.77 35.9375 264.687 36.6042 265.645 37.0625C266.728 37.5625 267.916 37.8542 269.208 37.9375ZM263.583 26.6875C264.916 26.7708 266.02 26.8333 266.895 26.875C267.812 26.9167 268.562 26.9583 269.145 27C269.77 27.0417 270.27 27.0625 270.645 27.0625H272.208C273.249 27.0625 275.187 27 278.02 26.875C277.895 25.0417 277.499 23.6458 276.833 22.6875C276.208 21.7292 275.541 21.0208 274.833 20.5625C273.999 20.0625 273.083 19.7708 272.083 19.6875C269.374 19.7292 267.353 20.2917 266.02 21.375C264.728 22.4583 263.916 24.2292 263.583 26.6875ZM285.487 13.5625C286.196 13.6875 286.925 13.7917 287.675 13.875C288.383 13.9167 289.029 13.9583 289.612 14C290.279 14.0417 290.925 14.0625 291.55 14.0625C292.175 14.0625 292.883 14.0417 293.675 14C294.342 13.9583 295.133 13.8958 296.05 13.8125C297.008 13.7292 298.05 13.6042 299.175 13.4375C298.508 13.8125 297.987 14.2083 297.612 14.625C297.237 15.0417 296.946 15.4167 296.737 15.75C296.487 16.1667 296.321 16.5417 296.237 16.875C296.154 17.2083 296.175 17.8958 296.3 18.9375C296.425 19.9792 296.592 21.1875 296.8 22.5625C297.05 23.9375 297.321 25.375 297.612 26.875C297.904 28.375 298.196 29.75 298.487 31C298.821 32.25 299.112 33.2917 299.362 34.125C299.654 34.9583 299.883 35.3542 300.05 35.3125C300.217 35.3125 300.467 34.8958 300.8 34.0625C301.175 33.2292 301.592 32.2083 302.05 31C302.508 29.75 302.987 28.3958 303.487 26.9375C303.987 25.4375 304.425 24.0417 304.8 22.75C305.175 21.4583 305.467 20.375 305.675 19.5C305.925 18.5833 306.029 18.0417 305.987 17.875C305.862 17.7083 305.717 17.4792 305.55 17.1875C305.258 16.7292 304.612 15.9375 303.612 14.8125C304.821 14.8958 305.862 14.9792 306.737 15.0625C307.612 15.1042 308.321 15.1667 308.862 15.25C309.487 15.3333 309.987 15.3958 310.362 15.4375C310.737 15.4792 311.279 15.4792 311.987 15.4375C312.571 15.4375 313.342 15.4167 314.3 15.375C315.3 15.2917 316.529 15.1667 317.987 15C316.904 15.625 316.008 16.1875 315.3 16.6875C314.633 17.1458 314.112 17.5417 313.737 17.875C313.279 18.2917 312.946 18.6458 312.737 18.9375C312.446 19.4792 311.925 20.7708 311.175 22.8125C310.842 23.6875 310.425 24.7708 309.925 26.0625C309.467 27.3542 308.904 28.9167 308.237 30.75C307.612 32.5417 306.862 34.6458 305.987 37.0625C305.112 39.4792 304.133 42.25 303.05 45.375L296.987 46C296.196 43.375 295.55 41.1875 295.05 39.4375C294.592 37.6458 294.217 36.2083 293.925 35.125C293.592 33.875 293.342 32.8958 293.175 32.1875C292.967 31.3958 292.717 30.25 292.425 28.75C292.133 27.2083 291.842 25.6458 291.55 24.0625C291.258 22.4792 290.967 21.0625 290.675 19.8125C290.383 18.5208 290.154 17.7292 289.987 17.4375C289.821 17.2292 289.529 16.9375 289.112 16.5625C288.779 16.2292 288.321 15.8333 287.737 15.375C287.154 14.875 286.404 14.2708 285.487 13.5625Z" fill="#43CA83"/>
</g>
<defs>
<filter id="filter0_d_520_35" x="0.625" y="0.0625" width="321.362" height="61.5" filterUnits="userSpaceOnUse" color-interpolation-filters="sRGB">
<feFlood flood-opacity="0" result="BackgroundImageFix"/>
<feColorMatrix in="SourceAlpha" type="matrix" values="0 0 0 0 0 0 0 0 0 0 0 0 0 0 0 0 0 0 127 0" result="hardAlpha"/>
<feOffset dy="4"/>
<feGaussianBlur stdDeviation="2"/>
<feComposite in2="hardAlpha" operator="out"/>
<feColorMatrix type="matrix" values="0 0 0 0 0 0 0 0 0 0 0 0 0 0 0 0 0 0 0.25 0"/>
<feBlend mode="normal" in2="BackgroundImageFix" result="effect1_dropShadow_520_35"/>
<feBlend mode="normal" in="SourceGraphic" in2="effect1_dropShadow_520_35" result="shape"/>
</filter>
</defs>
</svg>
