<svg width="501" height="129" viewBox="0 0 501 129" fill="none" xmlns="http://www.w3.org/2000/svg">
<path fill-rule="evenodd" clip-rule="evenodd" d="M82 129H87V124V65.5748C88.2732 62.6877 89 59.3517 89 55.7979C89 52.244 88.2732 48.908 87 46.0209V40C87 34.4772 82.5228 30 77 30H70C64.4772 30 60 34.4771 60 40V46.0209C58.7268 48.908 58 52.244 58 55.7979C58 59.3517 58.7268 62.6877 60 65.5748V124V129H65H82ZM65 72.4281C62.938 70.6902 61.2187 68.3382 60 65.5748V46.0209C61.2346 43.2215 62.9829 40.8443 65.0808 39.1C65.0277 39.3919 65 39.6927 65 40V72.4281ZM82 72.4281V119V124H77H70H65V119V72.4281C67.4407 74.4853 70.3614 75.682 73.5 75.682C76.6386 75.682 79.5593 74.4853 82 72.4281ZM82 72.4281V40C82 39.6927 81.9723 39.3919 81.9192 39.1C84.0171 40.8443 85.7654 43.2215 87 46.0209V65.5748C85.7813 68.3382 84.062 70.6902 82 72.4281ZM81.9192 39.1C79.495 37.0843 76.604 35.9138 73.5 35.9138C70.396 35.9138 67.505 37.0843 65.0808 39.1C65.5047 36.7681 67.5458 35 70 35H77C79.4542 35 81.4953 36.7681 81.9192 39.1Z" fill="#C98D47"/>
<g filter="url(#filter0_d_523_37)">
<path fill-rule="evenodd" clip-rule="evenodd" d="M87 15.17V17.5454C87 23.0683 82.5228 27.5454 77 27.5454L70 27.5454C64.4772 27.5454 60 23.0683 60 17.5454L60 15.17C61.2187 13.0853 62.938 11.311 65 10V17.5454C65 20.3068 67.2386 22.5454 70 22.5454L77 22.5454C79.7614 22.5454 82 20.3068 82 17.5454V10C84.062 11.311 85.7813 13.0853 87 15.17Z" fill="#C98D47"/>
<circle cx="74" cy="10" r="10" fill="#C98D47"/>
</g>
<g filter="url(#filter1_d_523_37)">
<path d="M138 72.5H140.5V70V62C140.5 57.8579 137.142 54.5 133 54.5H14C9.85786 54.5 6.5 57.8579 6.5 62V70V72.5H9H138Z" stroke="#C98D47" stroke-width="5" shape-rendering="crispEdges"/>
</g>
<g filter="url(#filter2_d_523_37)">
<path d="M157.625 69.9375C159.042 70.1042 160.229 70.2292 161.188 70.3125C162.188 70.3542 163 70.4167 163.625 70.5C164.375 70.5833 164.958 70.625 165.375 70.625C165.833 70.6667 166.521 70.6458 167.438 70.5625C168.229 70.4792 169.292 70.375 170.625 70.25C172 70.125 173.75 69.9375 175.875 69.6875C174.917 70.5208 174.146 71.3333 173.562 72.125C173.021 72.875 172.604 73.5417 172.312 74.125C171.938 74.8333 171.708 75.5 171.625 76.125C171.458 77.125 171.312 78.5 171.188 80.25C171.104 81.9583 171.021 83.8333 170.938 85.875C170.854 87.9167 170.812 90.0208 170.812 92.1875C170.812 94.3542 170.833 96.4167 170.875 98.375C170.958 100.292 171.083 102 171.25 103.5C171.458 105 171.708 106.083 172 106.75C172.417 107.5 172.854 108.25 173.312 109C173.729 109.625 174.229 110.271 174.812 110.938C175.396 111.604 176.062 112.146 176.812 112.562C174.354 112.438 172.396 112.375 170.938 112.375H168.688C168.021 112.375 167.167 112.417 166.125 112.5C165.25 112.583 164.146 112.667 162.812 112.75C161.479 112.833 159.875 112.958 158 113.125C158.958 112.083 159.708 111.083 160.25 110.125C160.792 109.167 161.229 108.333 161.562 107.625C161.938 106.792 162.188 106 162.312 105.25C162.479 104.167 162.604 102.833 162.688 101.25C162.812 99.625 162.896 97.8958 162.938 96.0625C162.979 94.1875 162.979 92.2917 162.938 90.375C162.938 88.4167 162.896 86.5417 162.812 84.75C162.729 82.9583 162.604 81.3333 162.438 79.875C162.312 78.4167 162.146 77.25 161.938 76.375C161.812 75.8333 161.562 75.2292 161.188 74.5625C160.854 73.9792 160.396 73.3125 159.812 72.5625C159.271 71.7708 158.542 70.8958 157.625 69.9375ZM177.155 67.375C179.947 67.7083 182.363 67.9583 184.405 68.125C186.447 68.25 188.134 68.3542 189.468 68.4375C191.009 68.5208 192.301 68.5417 193.343 68.5C194.426 68.4583 195.905 68.3542 197.78 68.1875C199.363 68.0625 201.447 67.8958 204.03 67.6875C206.613 67.4375 209.843 67.1042 213.718 66.6875C213.759 67.6458 213.78 68.5833 213.78 69.5C213.822 70.375 213.863 71.1458 213.905 71.8125C213.947 72.6042 213.968 73.3333 213.968 74C213.968 74.7083 213.926 75.6042 213.843 76.6875C213.759 77.6042 213.613 78.7708 213.405 80.1875C213.238 81.5625 212.968 83.2083 212.593 85.125C212.009 82.875 211.447 81.0625 210.905 79.6875C210.363 78.2708 209.863 77.1458 209.405 76.3125C208.905 75.3542 208.405 74.625 207.905 74.125C207.363 73.75 206.718 73.4375 205.968 73.1875C205.301 72.9792 204.447 72.8125 203.405 72.6875C202.405 72.5625 201.218 72.5833 199.843 72.75C199.634 78.25 199.488 82.7083 199.405 86.125C199.322 89.5417 199.259 92.2083 199.218 94.125C199.176 96.4167 199.155 98.0625 199.155 99.0625C199.197 100.479 199.426 101.875 199.843 103.25C200.176 104.417 200.718 105.625 201.468 106.875C202.218 108.125 203.301 109.229 204.718 110.188H197.093C196.384 110.188 195.509 110.229 194.468 110.312C193.593 110.396 192.468 110.479 191.093 110.562C189.759 110.646 188.197 110.792 186.405 111C187.03 109.917 187.53 108.938 187.905 108.062C188.28 107.188 188.572 106.438 188.78 105.812C189.03 105.062 189.218 104.396 189.343 103.812C189.384 102.979 189.488 101.292 189.655 98.75C189.697 97.7083 189.738 96.4167 189.78 94.875C189.863 93.3333 189.947 91.5 190.03 89.375C190.155 87.25 190.259 84.8125 190.343 82.0625C190.468 79.2708 190.593 76.125 190.718 72.625C189.968 72.4167 189.259 72.4375 188.593 72.6875C187.926 72.8958 187.343 73.1667 186.843 73.5C186.259 73.9167 185.697 74.4167 185.155 75C184.613 75.7083 184.009 76.625 183.343 77.75C182.759 78.7083 182.093 79.9792 181.343 81.5625C180.593 83.1042 179.738 85.0208 178.78 87.3125C178.572 84.8958 178.426 82.9167 178.343 81.375C178.259 79.7917 178.197 78.5625 178.155 77.6875C178.113 76.6458 178.093 75.875 178.093 75.375C178.093 74.9167 178.051 74.3125 177.968 73.5625C177.884 72.9375 177.78 72.125 177.655 71.125C177.53 70.0833 177.363 68.8333 177.155 67.375ZM253.873 67.25C253.289 68.5833 252.768 69.75 252.31 70.75C251.852 71.75 251.456 72.6042 251.123 73.3125C250.748 74.1042 250.435 74.8125 250.185 75.4375C249.977 75.8958 249.706 76.5208 249.373 77.3125C249.039 78.0208 248.623 78.9583 248.123 80.125C247.664 81.25 247.06 82.7083 246.31 84.5C245.935 82.9583 245.477 81.6042 244.935 80.4375C244.393 79.2708 243.81 78.25 243.185 77.375C242.56 76.5 241.893 75.7917 241.185 75.25C240.518 74.6667 239.852 74.1875 239.185 73.8125C237.643 72.9792 236.018 72.5208 234.31 72.4375C232.06 72.5625 230.289 72.9375 228.998 73.5625C227.748 74.1458 226.831 74.8333 226.248 75.625C225.664 76.375 225.352 77.1667 225.31 78C225.268 78.7917 225.373 79.4583 225.623 80C225.831 80.5 226.56 81.0833 227.81 81.75C229.102 82.4167 230.643 83.1875 232.435 84.0625C234.268 84.8958 236.227 85.8542 238.31 86.9375C240.393 87.9792 242.31 89.1458 244.06 90.4375C245.852 91.6875 247.352 93.0625 248.56 94.5625C249.81 96.0208 250.498 97.5833 250.623 99.25C250.748 101.375 250.727 103.292 250.56 105C250.393 106.708 249.81 108.167 248.81 109.375C247.81 110.583 246.248 111.542 244.123 112.25C242.039 112.958 239.143 113.396 235.435 113.562C231.602 113.729 228.456 113.521 225.998 112.938C223.539 112.354 221.539 111.562 219.998 110.562C218.498 109.562 217.373 108.458 216.623 107.25C215.914 106.042 215.393 104.896 215.06 103.812C214.727 102.688 214.498 101.729 214.373 100.938C214.248 100.104 214.039 99.6042 213.748 99.4375C213.414 99.2292 213.081 99.0417 212.748 98.875C212.456 98.7083 212.143 98.5625 211.81 98.4375C211.477 98.2708 211.143 98.125 210.81 98L228.998 95.0625C227.956 95.8958 227.143 96.6667 226.56 97.375C226.018 98.0833 225.602 98.7083 225.31 99.25C224.977 99.875 224.748 100.458 224.623 101C224.539 101.583 224.727 102.312 225.185 103.188C225.643 104.062 226.268 104.917 227.06 105.75C227.893 106.542 228.852 107.208 229.935 107.75C231.018 108.292 232.143 108.521 233.31 108.438C234.768 108.312 235.956 107.958 236.873 107.375C237.789 106.75 238.477 105.979 238.935 105.062C239.435 104.146 239.727 103.146 239.81 102.062C239.893 100.979 239.789 99.9167 239.498 98.875C239.248 97.7917 238.831 96.7917 238.248 95.875C237.664 94.9167 236.977 94.125 236.185 93.5C235.477 93 234.373 92.5208 232.873 92.0625C231.414 91.6042 229.768 91.1042 227.935 90.5625C226.143 90.0208 224.289 89.3958 222.373 88.6875C220.498 87.9792 218.789 87.1042 217.248 86.0625C215.748 85.0208 214.539 83.7917 213.623 82.375C212.748 80.9583 212.414 79.25 212.623 77.25C212.789 75.5417 213.331 74.125 214.248 73C215.206 71.8333 216.393 70.9167 217.81 70.25C219.268 69.5417 220.873 69.0208 222.623 68.6875C224.414 68.3542 226.227 68.1667 228.06 68.125C229.935 68.0417 231.768 68.0625 233.56 68.1875C235.393 68.3125 237.039 68.4583 238.498 68.625C239.956 68.7917 241.185 68.9583 242.185 69.125C243.227 69.25 243.873 69.3333 244.123 69.375C245.206 69.4583 246.289 69.4375 247.373 69.3125C248.331 69.2292 249.373 69.0417 250.498 68.75C251.664 68.4167 252.789 67.9167 253.873 67.25ZM255.152 67.9375C255.611 68.1458 256.152 68.2917 256.777 68.375C257.444 68.4583 258.069 68.5 258.652 68.5C259.361 68.5 260.09 68.4792 260.84 68.4375C261.59 68.3958 262.507 68.3125 263.59 68.1875C264.465 68.1042 265.548 68 266.84 67.875C268.132 67.75 269.569 67.5833 271.152 67.375C270.569 67.6667 270.069 67.9792 269.652 68.3125C269.236 68.6458 268.882 68.9792 268.59 69.3125C268.257 69.6875 267.986 70.0625 267.777 70.4375C267.486 70.9375 267.09 71.8125 266.59 73.0625C266.132 74.2708 265.652 75.625 265.152 77.125C264.694 78.625 264.277 80.1458 263.902 81.6875C263.569 83.2292 263.382 84.5417 263.34 85.625C263.298 86.5417 263.257 87.5833 263.215 88.75C263.173 89.75 263.132 90.9792 263.09 92.4375C263.048 93.8958 263.007 95.5625 262.965 97.4375C265.965 95.2708 268.277 93.5417 269.902 92.25C271.527 90.9167 272.715 89.8958 273.465 89.1875C274.34 88.3958 274.861 87.8333 275.027 87.5C274.986 87.25 274.882 86.9792 274.715 86.6875C274.507 86.4375 274.215 86.1458 273.84 85.8125C273.465 85.4792 272.902 85.1042 272.152 84.6875C273.236 84.8125 274.173 84.8958 274.965 84.9375C275.798 84.9792 276.507 85.0208 277.09 85.0625C277.757 85.1042 278.34 85.1042 278.84 85.0625C279.382 85.0625 280.048 85.0417 280.84 85C282.215 84.9583 284.34 84.8958 287.215 84.8125C284.423 86.2708 282.215 87.5208 280.59 88.5625C279.673 89.1458 278.861 89.6875 278.152 90.1875C277.444 90.7292 276.715 91.2917 275.965 91.875C275.298 92.375 274.527 92.9583 273.652 93.625C272.819 94.2917 271.986 95 271.152 95.75C272.611 98.125 273.882 100.083 274.965 101.625C276.09 103.167 277.027 104.417 277.777 105.375C278.652 106.5 279.423 107.396 280.09 108.062C280.757 108.688 281.632 109.396 282.715 110.188C283.632 110.896 284.819 111.729 286.277 112.688C287.777 113.604 289.59 114.667 291.715 115.875C290.632 115.667 289.59 115.521 288.59 115.438C287.59 115.396 286.736 115.396 286.027 115.438C285.152 115.479 284.361 115.562 283.652 115.688C282.902 115.854 282.069 116.062 281.152 116.312C280.361 116.521 279.423 116.792 278.34 117.125C277.298 117.5 276.152 117.979 274.902 118.562C275.694 117.979 276.277 117.417 276.652 116.875C277.069 116.375 277.361 115.958 277.527 115.625C277.694 115.208 277.757 114.854 277.715 114.562C277.507 114.146 277.027 113.292 276.277 112C275.569 110.917 274.527 109.333 273.152 107.25C271.777 105.167 269.819 102.333 267.277 98.75C267.152 98.7917 266.944 98.9167 266.652 99.125C266.402 99.3333 266.027 99.625 265.527 100C265.027 100.333 264.361 100.833 263.527 101.5L265.215 112.438C264.84 112.604 264.423 112.75 263.965 112.875C263.548 113 263.152 113.104 262.777 113.188C262.319 113.312 261.861 113.396 261.402 113.438C260.944 113.479 260.402 113.562 259.777 113.688C259.236 113.771 258.59 113.875 257.84 114C257.09 114.167 256.236 114.354 255.277 114.562C255.819 114.188 256.257 113.75 256.59 113.25C256.923 112.792 257.194 112.354 257.402 111.938C257.611 111.479 257.798 111 257.965 110.5C258.048 110.083 258.132 109 258.215 107.25C258.34 105.5 258.444 103.417 258.527 101C258.611 98.5417 258.673 95.9167 258.715 93.125C258.798 90.3333 258.84 87.7083 258.84 85.25C258.84 82.75 258.819 80.5833 258.777 78.75C258.736 76.875 258.652 75.6667 258.527 75.125C258.319 74.4583 258.069 73.75 257.777 73C257.527 72.3333 257.173 71.5833 256.715 70.75C256.298 69.875 255.777 68.9375 255.152 67.9375ZM286.245 85.0625L297.745 85.1875C297.078 87.7292 296.578 89.8958 296.245 91.6875C295.953 93.4792 295.766 94.9792 295.682 96.1875C295.516 97.5625 295.474 98.7292 295.557 99.6875C295.682 100.562 295.891 101.5 296.182 102.5C296.432 103.333 296.807 104.292 297.307 105.375C297.807 106.458 298.474 107.542 299.307 108.625C298.807 108.458 298.266 108.333 297.682 108.25C297.099 108.167 296.557 108.104 296.057 108.062C295.474 108.021 294.891 108.021 294.307 108.062C293.724 108.104 293.078 108.167 292.37 108.25C291.787 108.333 291.078 108.438 290.245 108.562C289.412 108.688 288.537 108.854 287.62 109.062C288.245 107.188 288.724 105.562 289.057 104.188C289.432 102.812 289.703 101.667 289.87 100.75C290.037 99.6667 290.141 98.7917 290.182 98.125C290.182 97.2917 290.182 96.3542 290.182 95.3125C290.182 94.2292 290.182 93.1875 290.182 92.1875C290.182 91.1875 290.162 90.3125 290.12 89.5625C290.078 88.7708 289.995 88.2708 289.87 88.0625L289.245 87.4375C288.995 87.2292 288.62 86.9375 288.12 86.5625C287.662 86.1458 287.037 85.6458 286.245 85.0625ZM290.682 75.4375C291.557 74.9792 292.432 74.8542 293.307 75.0625C294.224 75.2708 294.932 75.6667 295.432 76.25C295.932 76.8333 296.099 77.5208 295.932 78.3125C295.807 79.1042 295.141 79.875 293.932 80.625C292.724 81.3333 291.662 81.5833 290.745 81.375C289.828 81.1667 289.182 80.7292 288.807 80.0625C288.432 79.3958 288.37 78.625 288.62 77.75C288.87 76.8333 289.557 76.0625 290.682 75.4375ZM304.275 114.75C304.692 114.125 305.025 113.542 305.275 113C305.525 112.458 305.733 112 305.9 111.625C306.067 111.167 306.192 110.75 306.275 110.375C306.317 110.125 306.337 109.396 306.337 108.188C306.337 106.979 306.296 105.458 306.212 103.625C306.171 101.792 306.108 99.7292 306.025 97.4375C305.983 95.1458 305.9 92.8125 305.775 90.4375C305.692 88.0625 305.587 85.75 305.462 83.5C305.379 81.25 305.296 79.2292 305.212 77.4375C305.129 75.6042 305.046 74.1042 304.962 72.9375C304.879 71.7708 304.817 71.1042 304.775 70.9375C304.692 70.6875 304.546 70.4375 304.337 70.1875C303.921 69.6875 303.212 69.2083 302.212 68.75C304.337 68.2083 305.962 67.7708 307.087 67.4375C307.754 67.2708 308.337 67.1042 308.837 66.9375C309.296 66.7708 309.754 66.6042 310.212 66.4375C310.587 66.2708 311.004 66.0833 311.462 65.875C311.921 65.625 312.337 65.3542 312.712 65.0625C312.504 66.2708 312.337 67.4375 312.212 68.5625C312.087 69.6875 311.983 70.7292 311.9 71.6875C311.817 72.7708 311.775 73.8125 311.775 74.8125C311.567 76.8542 311.442 79.0833 311.4 81.5C311.4 83.875 311.421 86.2917 311.462 88.75C311.504 91.2083 311.587 93.6042 311.712 95.9375C311.837 98.2708 311.962 100.396 312.087 102.312C312.254 104.188 312.4 105.792 312.525 107.125C312.692 108.417 312.817 109.25 312.9 109.625C313.067 110.25 313.233 110.854 313.4 111.438C313.567 111.938 313.754 112.458 313.962 113C314.171 113.583 314.421 114.042 314.712 114.375H308.65C308.108 114.375 307.587 114.396 307.087 114.438C306.629 114.479 306.15 114.521 305.65 114.562C305.15 114.604 304.692 114.667 304.275 114.75ZM319.68 114.75C320.097 114.125 320.43 113.542 320.68 113C320.93 112.458 321.138 112 321.305 111.625C321.472 111.167 321.597 110.75 321.68 110.375C321.722 110.125 321.742 109.396 321.742 108.188C321.742 106.979 321.701 105.458 321.617 103.625C321.576 101.792 321.513 99.7292 321.43 97.4375C321.388 95.1458 321.305 92.8125 321.18 90.4375C321.097 88.0625 320.992 85.75 320.867 83.5C320.784 81.25 320.701 79.2292 320.617 77.4375C320.534 75.6042 320.451 74.1042 320.367 72.9375C320.284 71.7708 320.222 71.1042 320.18 70.9375C320.097 70.6875 319.951 70.4375 319.742 70.1875C319.326 69.6875 318.617 69.2083 317.617 68.75C319.742 68.2083 321.367 67.7708 322.492 67.4375C323.159 67.2708 323.742 67.1042 324.242 66.9375C324.701 66.7708 325.159 66.6042 325.617 66.4375C325.992 66.2708 326.409 66.0833 326.867 65.875C327.326 65.625 327.742 65.3542 328.117 65.0625C327.909 66.2708 327.742 67.4375 327.617 68.5625C327.492 69.6875 327.388 70.7292 327.305 71.6875C327.222 72.7708 327.18 73.8125 327.18 74.8125C326.972 76.8542 326.847 79.0833 326.805 81.5C326.805 83.875 326.826 86.2917 326.867 88.75C326.909 91.2083 326.992 93.6042 327.117 95.9375C327.242 98.2708 327.367 100.396 327.492 102.312C327.659 104.188 327.805 105.792 327.93 107.125C328.097 108.417 328.222 109.25 328.305 109.625C328.472 110.25 328.638 110.854 328.805 111.438C328.972 111.938 329.159 112.458 329.367 113C329.576 113.583 329.826 114.042 330.117 114.375H324.055C323.513 114.375 322.992 114.396 322.492 114.438C322.034 114.479 321.555 114.521 321.055 114.562C320.555 114.604 320.097 114.667 319.68 114.75ZM361.21 77.3125C360.835 78.2292 360.502 79.0625 360.21 79.8125C359.96 80.5625 359.731 81.2292 359.523 81.8125C359.314 82.4792 359.127 83.0625 358.96 83.5625C358.793 84.1458 358.606 84.8125 358.398 85.5625C358.189 86.2292 357.918 87.0625 357.585 88.0625C357.293 89.0208 356.939 90.1667 356.523 91.5C356.189 89.5 355.585 87.9167 354.71 86.75C353.835 85.5417 352.939 84.6042 352.023 83.9375C350.939 83.1875 349.773 82.6458 348.523 82.3125C346.273 81.9375 344.648 81.9792 343.648 82.4375C342.648 82.8958 341.981 83.4792 341.648 84.1875C341.481 84.4792 341.293 84.8542 341.085 85.3125C340.918 85.7292 340.773 86.1667 340.648 86.625C340.564 87.0833 340.543 87.5417 340.585 88C340.627 88.4583 340.814 88.8333 341.148 89.125C341.356 89.3333 341.898 89.625 342.773 90C343.648 90.3333 344.689 90.7292 345.898 91.1875C347.148 91.6042 348.46 92.0625 349.835 92.5625C351.252 93.0625 352.585 93.5625 353.835 94.0625C355.085 94.5625 356.168 95.0625 357.085 95.5625C358.002 96.0625 358.606 96.5208 358.898 96.9375C359.148 97.3542 359.418 97.9167 359.71 98.625C360.043 99.2917 360.273 100.042 360.398 100.875C360.564 101.667 360.606 102.5 360.523 103.375C360.481 104.208 360.252 105.042 359.835 105.875C359.418 106.708 358.752 107.479 357.835 108.188C356.96 108.896 355.773 109.479 354.273 109.938C352.523 110.479 350.835 110.625 349.21 110.375C347.585 110.125 346.085 109.75 344.71 109.25C343.377 108.75 342.21 108.271 341.21 107.812C340.21 107.312 339.502 107.104 339.085 107.188C338.627 107.271 338.106 107.5 337.523 107.875C336.939 108.25 336.377 108.646 335.835 109.062C335.335 109.438 334.898 109.792 334.523 110.125C334.148 110.417 333.96 110.521 333.96 110.438C333.96 110.354 334.023 110.104 334.148 109.688C334.314 109.271 334.481 108.771 334.648 108.188C334.856 107.562 335.043 106.896 335.21 106.188C335.418 105.438 335.564 104.729 335.648 104.062C335.731 103.521 335.835 102.854 335.96 102.062C336.043 101.354 336.148 100.5 336.273 99.5C336.439 98.4583 336.627 97.2083 336.835 95.75C337.043 96.8333 337.335 97.7708 337.71 98.5625C338.127 99.3542 338.523 100.042 338.898 100.625C339.356 101.292 339.793 101.854 340.21 102.312C340.835 102.896 341.564 103.438 342.398 103.938C343.273 104.438 344.148 104.875 345.023 105.25C345.898 105.583 346.731 105.792 347.523 105.875C348.314 105.958 348.981 105.875 349.523 105.625C350.064 105.375 350.523 104.917 350.898 104.25C351.314 103.583 351.606 102.854 351.773 102.062C351.939 101.271 352.002 100.521 351.96 99.8125C351.918 99.0625 351.731 98.4583 351.398 98C351.148 97.7083 350.564 97.3333 349.648 96.875C348.773 96.4167 347.71 95.9167 346.46 95.375C345.252 94.8333 343.96 94.2708 342.585 93.6875C341.252 93.1042 339.981 92.5208 338.773 91.9375C337.606 91.3125 336.627 90.7292 335.835 90.1875C335.085 89.6042 334.668 89.0833 334.585 88.625C334.502 87.9583 334.439 87.2292 334.398 86.4375C334.356 85.6042 334.398 84.7917 334.523 84C334.689 83.1667 334.981 82.375 335.398 81.625C335.856 80.875 336.523 80.25 337.398 79.75C337.981 79.4167 338.752 79.1667 339.71 79C340.668 78.8333 341.731 78.75 342.898 78.75C344.064 78.7083 345.273 78.75 346.523 78.875C347.773 78.9583 348.96 79.0833 350.085 79.25C351.252 79.375 352.293 79.5417 353.21 79.75C354.168 79.9583 354.898 80.1458 355.398 80.3125C355.981 80.5208 356.606 80.5417 357.273 80.375C357.856 80.25 358.481 79.9792 359.148 79.5625C359.814 79.1458 360.502 78.3958 361.21 77.3125ZM362.49 68.4375C363.948 68.6458 365.219 68.8125 366.303 68.9375C367.386 69.0625 368.282 69.1667 368.99 69.25C369.823 69.3333 370.532 69.3958 371.115 69.4375C371.782 69.5208 372.594 69.4792 373.553 69.3125C374.553 69.1458 375.615 68.9792 376.74 68.8125C377.865 68.6042 379.032 68.4375 380.24 68.3125C381.448 68.1875 382.615 68.1875 383.74 68.3125C384.49 68.3958 385.448 68.5625 386.615 68.8125C387.782 69.0625 389.011 69.4583 390.303 70C391.636 70.5417 392.969 71.25 394.303 72.125C395.636 73 396.844 74.1042 397.928 75.4375C399.011 76.7708 399.907 78.3542 400.615 80.1875C401.323 82.0208 401.719 84.1667 401.803 86.625C401.928 90.2917 401.594 93.625 400.803 96.625C400.011 99.625 398.782 102.188 397.115 104.312C395.49 106.438 393.428 108.104 390.928 109.312C388.428 110.521 385.511 111.188 382.178 111.312C379.636 111.521 377.136 111.708 374.678 111.875C373.636 111.958 372.532 112.021 371.365 112.062C370.24 112.104 369.115 112.146 367.99 112.188C366.865 112.188 365.782 112.167 364.74 112.125C363.698 112.083 362.74 112.021 361.865 111.938C362.823 111.479 363.594 111.021 364.178 110.562C364.803 110.104 365.282 109.708 365.615 109.375C365.99 108.958 366.261 108.583 366.428 108.25C366.511 107.792 366.636 106.896 366.803 105.562C366.928 104.438 367.094 102.833 367.303 100.75C367.511 98.6667 367.761 95.8333 368.053 92.25L368.428 87.8125C368.636 85.0625 368.719 82.8125 368.678 81.0625C368.678 79.3125 368.636 77.9375 368.553 76.9375C368.428 75.7708 368.261 74.9167 368.053 74.375C367.886 73.9167 367.573 73.375 367.115 72.75C366.698 72.25 366.115 71.6458 365.365 70.9375C364.657 70.1875 363.698 69.3542 362.49 68.4375ZM375.678 91.4375C375.761 95.1458 375.948 98 376.24 100C376.573 101.958 376.928 103.417 377.303 104.375C377.761 105.458 378.261 106.104 378.803 106.312C379.594 106.312 380.49 105.979 381.49 105.312C382.49 104.604 383.469 103.542 384.428 102.125C385.428 100.708 386.323 98.9375 387.115 96.8125C387.948 94.6875 388.553 92.2083 388.928 89.375C389.303 86.5417 389.198 84.0417 388.615 81.875C388.032 79.7083 387.261 77.8958 386.303 76.4375C385.344 74.9375 384.365 73.8125 383.365 73.0625C382.365 72.2708 381.615 71.875 381.115 71.875C380.532 71.875 380.011 72.0417 379.553 72.375C379.094 72.6667 378.448 73.3542 377.615 74.4375C377.198 75.0208 376.823 75.8542 376.49 76.9375C376.198 77.8958 375.948 79.1667 375.74 80.75C375.532 82.3333 375.469 84.375 375.553 86.875L375.678 91.4375ZM422.208 102.938C423.374 102.938 424.458 102.812 425.458 102.562C426.291 102.354 427.083 102.021 427.833 101.562C428.624 101.062 429.145 100.333 429.395 99.375C430.228 99.5417 430.937 99.6875 431.52 99.8125C432.103 99.8958 432.603 99.9792 433.02 100.062C433.478 100.188 433.874 100.271 434.208 100.312C434.541 100.396 434.937 100.479 435.395 100.562C435.812 100.646 436.312 100.75 436.895 100.875C437.52 100.958 438.249 101.083 439.083 101.25C438.458 101.167 437.812 101.229 437.145 101.438C436.52 101.646 435.916 101.875 435.333 102.125C434.666 102.417 434.041 102.771 433.458 103.188C433.083 103.438 432.645 103.812 432.145 104.312C431.687 104.812 431.02 105.292 430.145 105.75C429.27 106.208 428.103 106.604 426.645 106.938C425.228 107.229 423.395 107.333 421.145 107.25C418.437 107.167 416.166 106.688 414.333 105.812C412.499 104.896 411.02 103.792 409.895 102.5C408.77 101.167 407.958 99.7292 407.458 98.1875C406.958 96.6458 406.687 95.2083 406.645 93.875C406.603 92.5417 406.999 91.1458 407.833 89.6875C408.666 88.2292 409.833 86.8958 411.333 85.6875C412.874 84.4792 414.728 83.5 416.895 82.75C419.062 81.9583 421.437 81.5625 424.02 81.5625C425.52 81.5625 426.895 81.75 428.145 82.125C429.437 82.4583 430.603 82.9167 431.645 83.5C432.728 84.0833 433.666 84.75 434.458 85.5C435.249 86.2083 435.916 86.9375 436.458 87.6875C436.999 88.4792 437.458 89.3125 437.833 90.1875C438.166 90.9375 438.437 91.7917 438.645 92.75C438.853 93.7083 438.916 94.6875 438.833 95.6875C435.666 95.7708 433.103 95.8333 431.145 95.875C429.228 95.9167 427.728 95.9375 426.645 95.9375H423.833H421.708C420.958 95.9375 419.978 95.9583 418.77 96C417.562 96.0417 416.083 96.1042 414.333 96.1875C414.541 97.8542 415.062 99.1458 415.895 100.062C416.77 100.938 417.687 101.604 418.645 102.062C419.728 102.562 420.916 102.854 422.208 102.938ZM416.583 91.6875C417.916 91.7708 419.02 91.8333 419.895 91.875C420.812 91.9167 421.562 91.9583 422.145 92C422.77 92.0417 423.27 92.0625 423.645 92.0625H425.208C426.249 92.0625 428.187 92 431.02 91.875C430.895 90.0417 430.499 88.6458 429.833 87.6875C429.208 86.7292 428.541 86.0208 427.833 85.5625C426.999 85.0625 426.083 84.7708 425.083 84.6875C422.374 84.7292 420.353 85.2917 419.02 86.375C417.728 87.4583 416.916 89.2292 416.583 91.6875ZM438.487 78.5625C439.196 78.6875 439.925 78.7917 440.675 78.875C441.383 78.9167 442.029 78.9583 442.612 79C443.279 79.0417 443.925 79.0625 444.55 79.0625C445.175 79.0625 445.883 79.0417 446.675 79C447.342 78.9583 448.133 78.8958 449.05 78.8125C450.008 78.7292 451.05 78.6042 452.175 78.4375C451.508 78.8125 450.987 79.2083 450.612 79.625C450.237 80.0417 449.946 80.4167 449.737 80.75C449.487 81.1667 449.321 81.5417 449.237 81.875C449.154 82.2083 449.175 82.8958 449.3 83.9375C449.425 84.9792 449.592 86.1875 449.8 87.5625C450.05 88.9375 450.321 90.375 450.612 91.875C450.904 93.375 451.196 94.75 451.487 96C451.821 97.25 452.112 98.2917 452.362 99.125C452.654 99.9583 452.883 100.354 453.05 100.312C453.217 100.312 453.467 99.8958 453.8 99.0625C454.175 98.2292 454.592 97.2083 455.05 96C455.508 94.75 455.987 93.3958 456.487 91.9375C456.987 90.4375 457.425 89.0417 457.8 87.75C458.175 86.4583 458.467 85.375 458.675 84.5C458.925 83.5833 459.029 83.0417 458.987 82.875C458.862 82.7083 458.717 82.4792 458.55 82.1875C458.258 81.7292 457.612 80.9375 456.612 79.8125C457.821 79.8958 458.862 79.9792 459.737 80.0625C460.612 80.1042 461.321 80.1667 461.862 80.25C462.487 80.3333 462.987 80.3958 463.362 80.4375C463.737 80.4792 464.279 80.4792 464.987 80.4375C465.571 80.4375 466.342 80.4167 467.3 80.375C468.3 80.2917 469.529 80.1667 470.987 80C469.904 80.625 469.008 81.1875 468.3 81.6875C467.633 82.1458 467.112 82.5417 466.737 82.875C466.279 83.2917 465.946 83.6458 465.737 83.9375C465.446 84.4792 464.925 85.7708 464.175 87.8125C463.842 88.6875 463.425 89.7708 462.925 91.0625C462.467 92.3542 461.904 93.9167 461.237 95.75C460.612 97.5417 459.862 99.6458 458.987 102.062C458.112 104.479 457.133 107.25 456.05 110.375L449.987 111C449.196 108.375 448.55 106.188 448.05 104.438C447.592 102.646 447.217 101.208 446.925 100.125C446.592 98.875 446.342 97.8958 446.175 97.1875C445.967 96.3958 445.717 95.25 445.425 93.75C445.133 92.2083 444.842 90.6458 444.55 89.0625C444.258 87.4792 443.967 86.0625 443.675 84.8125C443.383 83.5208 443.154 82.7292 442.987 82.4375C442.821 82.2292 442.529 81.9375 442.112 81.5625C441.779 81.2292 441.321 80.8333 440.737 80.375C440.154 79.875 439.404 79.2708 438.487 78.5625ZM496.642 77.3125C496.267 78.2292 495.934 79.0625 495.642 79.8125C495.392 80.5625 495.163 81.2292 494.955 81.8125C494.747 82.4792 494.559 83.0625 494.392 83.5625C494.226 84.1458 494.038 84.8125 493.83 85.5625C493.622 86.2292 493.351 87.0625 493.017 88.0625C492.726 89.0208 492.372 90.1667 491.955 91.5C491.622 89.5 491.017 87.9167 490.142 86.75C489.267 85.5417 488.372 84.6042 487.455 83.9375C486.372 83.1875 485.205 82.6458 483.955 82.3125C481.705 81.9375 480.08 81.9792 479.08 82.4375C478.08 82.8958 477.413 83.4792 477.08 84.1875C476.913 84.4792 476.726 84.8542 476.517 85.3125C476.351 85.7292 476.205 86.1667 476.08 86.625C475.997 87.0833 475.976 87.5417 476.017 88C476.059 88.4583 476.247 88.8333 476.58 89.125C476.788 89.3333 477.33 89.625 478.205 90C479.08 90.3333 480.122 90.7292 481.33 91.1875C482.58 91.6042 483.892 92.0625 485.267 92.5625C486.684 93.0625 488.017 93.5625 489.267 94.0625C490.517 94.5625 491.601 95.0625 492.517 95.5625C493.434 96.0625 494.038 96.5208 494.33 96.9375C494.58 97.3542 494.851 97.9167 495.142 98.625C495.476 99.2917 495.705 100.042 495.83 100.875C495.997 101.667 496.038 102.5 495.955 103.375C495.913 104.208 495.684 105.042 495.267 105.875C494.851 106.708 494.184 107.479 493.267 108.188C492.392 108.896 491.205 109.479 489.705 109.938C487.955 110.479 486.267 110.625 484.642 110.375C483.017 110.125 481.517 109.75 480.142 109.25C478.809 108.75 477.642 108.271 476.642 107.812C475.642 107.312 474.934 107.104 474.517 107.188C474.059 107.271 473.538 107.5 472.955 107.875C472.372 108.25 471.809 108.646 471.267 109.062C470.767 109.438 470.33 109.792 469.955 110.125C469.58 110.417 469.392 110.521 469.392 110.438C469.392 110.354 469.455 110.104 469.58 109.688C469.747 109.271 469.913 108.771 470.08 108.188C470.288 107.562 470.476 106.896 470.642 106.188C470.851 105.438 470.997 104.729 471.08 104.062C471.163 103.521 471.267 102.854 471.392 102.062C471.476 101.354 471.58 100.5 471.705 99.5C471.872 98.4583 472.059 97.2083 472.267 95.75C472.476 96.8333 472.767 97.7708 473.142 98.5625C473.559 99.3542 473.955 100.042 474.33 100.625C474.788 101.292 475.226 101.854 475.642 102.312C476.267 102.896 476.997 103.438 477.83 103.938C478.705 104.438 479.58 104.875 480.455 105.25C481.33 105.583 482.163 105.792 482.955 105.875C483.747 105.958 484.413 105.875 484.955 105.625C485.497 105.375 485.955 104.917 486.33 104.25C486.747 103.583 487.038 102.854 487.205 102.062C487.372 101.271 487.434 100.521 487.392 99.8125C487.351 99.0625 487.163 98.4583 486.83 98C486.58 97.7083 485.997 97.3333 485.08 96.875C484.205 96.4167 483.142 95.9167 481.892 95.375C480.684 94.8333 479.392 94.2708 478.017 93.6875C476.684 93.1042 475.413 92.5208 474.205 91.9375C473.038 91.3125 472.059 90.7292 471.267 90.1875C470.517 89.6042 470.101 89.0833 470.017 88.625C469.934 87.9583 469.872 87.2292 469.83 86.4375C469.788 85.6042 469.83 84.7917 469.955 84C470.122 83.1667 470.413 82.375 470.83 81.625C471.288 80.875 471.955 80.25 472.83 79.75C473.413 79.4167 474.184 79.1667 475.142 79C476.101 78.8333 477.163 78.75 478.33 78.75C479.497 78.7083 480.705 78.75 481.955 78.875C483.205 78.9583 484.392 79.0833 485.517 79.25C486.684 79.375 487.726 79.5417 488.642 79.75C489.601 79.9583 490.33 80.1458 490.83 80.3125C491.413 80.5208 492.038 80.5417 492.705 80.375C493.288 80.25 493.913 79.9792 494.58 79.5625C495.247 79.1458 495.934 78.3958 496.642 77.3125Z" fill="#43CA83"/>
</g>
<defs>
<filter id="filter0_d_523_37" x="56" y="0" width="35" height="35.5454" filterUnits="userSpaceOnUse" color-interpolation-filters="sRGB">
<feFlood flood-opacity="0" result="BackgroundImageFix"/>
<feColorMatrix in="SourceAlpha" type="matrix" values="0 0 0 0 0 0 0 0 0 0 0 0 0 0 0 0 0 0 127 0" result="hardAlpha"/>
<feOffset dy="4"/>
<feGaussianBlur stdDeviation="2"/>
<feComposite in2="hardAlpha" operator="out"/>
<feColorMatrix type="matrix" values="0 0 0 0 0 0 0 0 0 0 0 0 0 0 0 0 0 0 0.25 0"/>
<feBlend mode="normal" in2="BackgroundImageFix" result="effect1_dropShadow_523_37"/>
<feBlend mode="normal" in="SourceGraphic" in2="effect1_dropShadow_523_37" result="shape"/>
</filter>
<filter id="filter1_d_523_37" x="0" y="52" width="147" height="31" filterUnits="userSpaceOnUse" color-interpolation-filters="sRGB">
<feFlood flood-opacity="0" result="BackgroundImageFix"/>
<feColorMatrix in="SourceAlpha" type="matrix" values="0 0 0 0 0 0 0 0 0 0 0 0 0 0 0 0 0 0 127 0" result="hardAlpha"/>
<feOffset dy="4"/>
<feGaussianBlur stdDeviation="2"/>
<feComposite in2="hardAlpha" operator="out"/>
<feColorMatrix type="matrix" values="0 0 0 0 0 0 0 0 0 0 0 0 0 0 0 0 0 0 0.25 0"/>
<feBlend mode="normal" in2="BackgroundImageFix" result="effect1_dropShadow_523_37"/>
<feBlend mode="normal" in="SourceGraphic" in2="effect1_dropShadow_523_37" result="shape"/>
</filter>
<filter id="filter2_d_523_37" x="153.625" y="65.0625" width="347.017" height="61.5" filterUnits="userSpaceOnUse" color-interpolation-filters="sRGB">
<feFlood flood-opacity="0" result="BackgroundImageFix"/>
<feColorMatrix in="SourceAlpha" type="matrix" values="0 0 0 0 0 0 0 0 0 0 0 0 0 0 0 0 0 0 127 0" result="hardAlpha"/>
<feOffset dy="4"/>
<feGaussianBlur stdDeviation="2"/>
<feComposite in2="hardAlpha" operator="out"/>
<feColorMatrix type="matrix" values="0 0 0 0 0 0 0 0 0 0 0 0 0 0 0 0 0 0 0.25 0"/>
<feBlend mode="normal" in2="BackgroundImageFix" result="effect1_dropShadow_523_37"/>
<feBlend mode="normal" in="SourceGraphic" in2="effect1_dropShadow_523_37" result="shape"/>
</filter>
</defs>
</svg>
