<svg width="20" height="20" viewBox="0 0 20 20" fill="none" xmlns="http://www.w3.org/2000/svg">
<path d="M11 9.9998C10.7167 9.9998 10.4793 9.9038 10.288 9.7118C10.096 9.52047 9.99999 9.28314 9.99999 8.9998V2.9998C9.99999 2.71647 10.096 2.4788 10.288 2.2868C10.4793 2.09547 10.7167 1.9998 11 1.9998C11.2833 1.9998 11.521 2.09547 11.713 2.2868C11.9043 2.4788 12 2.71647 12 2.9998V6.5998L17.9 0.699805C18.0833 0.516471 18.3167 0.424805 18.6 0.424805C18.8833 0.424805 19.1167 0.516471 19.3 0.699805C19.4833 0.883138 19.575 1.11647 19.575 1.3998C19.575 1.68314 19.4833 1.91647 19.3 2.0998L13.4 7.9998H17C17.2833 7.9998 17.5207 8.09547 17.712 8.2868C17.904 8.4788 18 8.71647 18 8.9998C18 9.28314 17.904 9.52047 17.712 9.7118C17.5207 9.9038 17.2833 9.9998 17 9.9998H11ZM0.699988 19.2998C0.516655 19.1165 0.424988 18.8831 0.424988 18.5998C0.424988 18.3165 0.516655 18.0831 0.699988 17.8998L6.59999 11.9998H2.99999C2.71665 11.9998 2.47899 11.9038 2.28699 11.7118C2.09565 11.5205 1.99999 11.2831 1.99999 10.9998C1.99999 10.7165 2.09565 10.4788 2.28699 10.2868C2.47899 10.0955 2.71665 9.9998 2.99999 9.9998H8.99999C9.28332 9.9998 9.52099 10.0955 9.71299 10.2868C9.90432 10.4788 9.99999 10.7165 9.99999 10.9998V16.9998C9.99999 17.2831 9.90432 17.5205 9.71299 17.7118C9.52099 17.9038 9.28332 17.9998 8.99999 17.9998C8.71665 17.9998 8.47932 17.9038 8.28799 17.7118C8.09599 17.5205 7.99999 17.2831 7.99999 16.9998V13.3998L2.09999 19.2998C1.91665 19.4831 1.68332 19.5748 1.39999 19.5748C1.11665 19.5748 0.883321 19.4831 0.699988 19.2998Z" fill="#F8F8F8"/>
</svg>
