<svg width="12" height="12" viewBox="0 0 12 12" fill="none" xmlns="http://www.w3.org/2000/svg">
<path d="M1.044 4L1.034 4.074C0.733292 4.17228 0.471357 4.36313 0.285645 4.61924C0.0999331 4.87536 -4.67231e-05 5.18364 1.63802e-08 5.5V8.5C1.63802e-08 8.89782 0.158035 9.27936 0.43934 9.56066C0.720644 9.84196 1.10218 10 1.5 10H10.5C10.8978 10 11.2794 9.84196 11.5607 9.56066C11.842 9.27936 12 8.89782 12 8.5V5.5C12.0001 5.18255 11.8994 4.87327 11.7125 4.61666C11.5256 4.36005 11.2622 4.16935 10.96 4.072L10.951 4H11.5C11.6326 4 11.7598 3.94732 11.8536 3.85355C11.9473 3.75979 12 3.63261 12 3.5C12 3.36739 11.9473 3.24021 11.8536 3.14645C11.7598 3.05268 11.6326 3 11.5 3H10.823L10.663 1.747C10.6015 1.26445 10.3662 0.820877 10.0012 0.499309C9.63615 0.17774 9.16645 0.000227041 8.68 5.10514e-08H3.319C2.83283 -0.000109741 2.36326 0.176873 1.99811 0.497852C1.63296 0.818831 1.39723 1.26183 1.335 1.744L1.173 3H0.5C0.367392 3 0.240215 3.05268 0.146447 3.14645C0.0526785 3.24021 1.63802e-08 3.36739 1.63802e-08 3.5C1.63802e-08 3.63261 0.0526785 3.75979 0.146447 3.85355C0.240215 3.94732 0.367392 4 0.5 4H1.044ZM3.319 1H8.679C8.92224 0.999976 9.15714 1.08861 9.33974 1.2493C9.52234 1.40999 9.64011 1.63173 9.671 1.873L9.943 4H2.053L2.327 1.872C2.35812 1.63091 2.47598 1.40942 2.65856 1.24893C2.84113 1.08844 3.07591 0.999945 3.319 1ZM3.25 7.749C3.15164 7.749 3.05424 7.72963 2.96337 7.69199C2.8725 7.65435 2.78993 7.59917 2.72038 7.52962C2.65083 7.46007 2.59566 7.3775 2.55801 7.28663C2.52037 7.19576 2.501 7.09836 2.501 7C2.501 6.90164 2.52037 6.80424 2.55801 6.71337C2.59566 6.6225 2.65083 6.53993 2.72038 6.47038C2.78993 6.40083 2.8725 6.34565 2.96337 6.30801C3.05424 6.27037 3.15164 6.251 3.25 6.251C3.44865 6.251 3.63916 6.32991 3.77962 6.47038C3.92009 6.61084 3.999 6.80135 3.999 7C3.999 7.19865 3.92009 7.38916 3.77962 7.52962C3.63916 7.67009 3.44865 7.749 3.25 7.749V7.749ZM8.748 7.749C8.64964 7.749 8.55224 7.72963 8.46137 7.69199C8.3705 7.65435 8.28793 7.59917 8.21838 7.52962C8.14883 7.46007 8.09365 7.3775 8.05601 7.28663C8.01837 7.19576 7.999 7.09836 7.999 7C7.999 6.90164 8.01837 6.80424 8.05601 6.71337C8.09365 6.6225 8.14883 6.53993 8.21838 6.47038C8.28793 6.40083 8.3705 6.34565 8.46137 6.30801C8.55224 6.27037 8.64964 6.251 8.748 6.251C8.94665 6.251 9.13716 6.32991 9.27762 6.47038C9.41809 6.61084 9.497 6.80135 9.497 7C9.497 7.19865 9.41809 7.38916 9.27762 7.52962C9.13716 7.67009 8.94665 7.749 8.748 7.749ZM10.497 11H8.997V11.25C8.997 11.4489 9.07602 11.6397 9.21667 11.7803C9.35732 11.921 9.54809 12 9.747 12C9.94591 12 10.1367 11.921 10.2773 11.7803C10.418 11.6397 10.497 11.4489 10.497 11.25V11ZM3 11H1.5V11.25C1.5 11.4489 1.57902 11.6397 1.71967 11.7803C1.86032 11.921 2.05109 12 2.25 12C2.44891 12 2.63968 11.921 2.78033 11.7803C2.92098 11.6397 3 11.4489 3 11.25V11Z" fill="#F8F8F8"/>
</svg>
